# xmcd CD database file
#
# Track frame offsets:
#	150
#	17367
#	37767
#	54745
#	76550
#	95410
#	114165
#	135907
#	153927
#	172352
#	191795
#	206710
#	230282
#	246885
#	264162
#	282385
#	295677
#	315452
#
# Disc length: 4438 seconds
#
# Revision: 0
# Processed by: cddbd v1.5PL3 Copyright (c) Steve Scherf et al.
# Submitted via: CDex 1.50beta8
#
DISCID=e4115412
DTITLE=Jazzy Jeff and Fresh Prince - Greatest Hits
DYEAR=1998
DGENRE=Hip-Hop
TTITLE0=Boom! Shake The Room
TTITLE1=Summertime
TTITLE2=Men In Black
TTITLE3=Girls Ain't Nothing But Trouble
TTITLE4=Twinkle, Twinkle
TTITLE5=The Things That U Do
TTITLE6=I Think I Can Beat Mike Tyson
TTITLE7=Just Cruisin'
TTITLE8=Ring My Bell
TTITLE9=I Wanna Rock
TTITLE10=A Touch of Jazz
TTITLE11=Parents Just Don't Understand
TTITLE12=I'm Looking For The One
TTITLE13=Can't Wait To Be With You
TTITLE14=Brand New Funk
TTITLE15=Fresh Prince of Bel Air
TTITLE16=Lovely Daze
TTITLE17=Don't Fight The Feeling
EXTD=YEAR: 1998
EXTT0=
EXTT1=
EXTT2=
EXTT3=
EXTT4=
EXTT5=
EXTT6=
EXTT7=
EXTT8=
EXTT9=
EXTT10=
EXTT11=
EXTT12=
EXTT13=
EXTT14=
EXTT15=
EXTT16=
EXTT17=
PLAYORDER=
